<svg id="svg-source" height="0" version="1.1" 
  xmlns="http://www.w3.org/2000/svg" style="position:absolute; margin-left: -100%"
  xmlns:xlink="http://www.w3.org/1999/xlink">
  <g id="paper-boat" data-iconmelon="AHOY:a17e1b4cbf580ec889c366621a3069cf">
    <path  d="M31.879,14.928c0.016-0.028,0.027-0.058,0.04-0.088c0.013-0.032,0.026-0.062,0.036-0.096
  c0.011-0.033,0.016-0.067,0.024-0.102c0.005-0.031,0.013-0.062,0.017-0.095c0.004-0.038,0.003-0.075,0.002-0.114
  c0-0.023,0.004-0.045,0.002-0.069c0-0.006-0.003-0.013-0.004-0.019c-0.003-0.038-0.012-0.075-0.02-0.111
  c-0.006-0.03-0.01-0.061-0.019-0.09c-0.009-0.031-0.024-0.061-0.036-0.091c-0.012-0.031-0.024-0.063-0.04-0.093
  c-0.015-0.029-0.035-0.056-0.053-0.082c-0.018-0.027-0.035-0.057-0.057-0.083c-0.022-0.025-0.048-0.05-0.073-0.075
  c-0.022-0.022-0.043-0.045-0.068-0.065c-0.007-0.006-0.012-0.013-0.019-0.019c-0.026-0.021-0.054-0.034-0.081-0.052
  c-0.021-0.014-0.042-0.028-0.064-0.04c-0.041-0.023-0.084-0.041-0.128-0.058c-0.018-0.007-0.035-0.015-0.054-0.021
  c-0.047-0.016-0.093-0.025-0.141-0.033c-0.02-0.003-0.039-0.008-0.058-0.01c-0.044-0.005-0.088-0.005-0.133-0.004
  c-0.02,0-0.04-0.004-0.06-0.002l-6.221,0.48l-8.071-5.816c-0.004-0.003-0.008-0.004-0.011-0.007
  c-0.014-0.009-0.028-0.019-0.042-0.026c-0.027-0.017-0.055-0.031-0.083-0.046c-0.018-0.009-0.036-0.021-0.055-0.028
  c-0.012-0.007-0.027-0.011-0.041-0.016c-0.027-0.01-0.055-0.019-0.083-0.026c-0.024-0.007-0.047-0.016-0.071-0.021
  c-0.013-0.004-0.025-0.004-0.039-0.007c-0.027-0.005-0.055-0.007-0.082-0.01c-0.028-0.002-0.055-0.006-0.083-0.007
  c-0.005,0-0.008-0.001-0.013-0.001c-0.008,0-0.015,0.002-0.023,0.002c-0.026,0.001-0.053,0.004-0.079,0.008
  c-0.029,0.002-0.058,0.004-0.085,0.01c-0.013,0.001-0.025,0.005-0.038,0.007c-0.024,0.006-0.047,0.015-0.07,0.021
  c-0.028,0.008-0.056,0.016-0.083,0.026c-0.014,0.006-0.026,0.01-0.04,0.017C15.56,7.987,15.54,8,15.52,8.011
  c-0.025,0.014-0.051,0.026-0.076,0.042c-0.013,0.008-0.026,0.018-0.04,0.026c-0.006,0.004-0.013,0.008-0.02,0.012l-7.826,5.826
  l-6.453-0.499c-0.019-0.002-0.037,0.002-0.056,0.001c-0.045-0.001-0.09-0.001-0.136,0.004c-0.021,0.002-0.042,0.008-0.062,0.011
  c-0.046,0.008-0.091,0.017-0.135,0.031c-0.022,0.007-0.042,0.016-0.062,0.024c-0.041,0.016-0.081,0.032-0.12,0.053
  c-0.025,0.015-0.049,0.031-0.073,0.048c-0.025,0.016-0.05,0.028-0.074,0.047c-0.006,0.005-0.011,0.011-0.017,0.017
  C0.344,13.676,0.32,13.7,0.296,13.726c-0.023,0.023-0.047,0.045-0.067,0.069c-0.022,0.027-0.04,0.058-0.059,0.087
  c-0.017,0.026-0.037,0.052-0.052,0.079c-0.016,0.029-0.027,0.062-0.04,0.093c-0.012,0.03-0.027,0.06-0.036,0.091
  c-0.009,0.028-0.013,0.059-0.019,0.089c-0.007,0.037-0.016,0.074-0.02,0.112C0.003,14.352,0.001,14.358,0,14.364
  c-0.002,0.024,0.002,0.046,0.001,0.069c0,0.039,0,0.076,0.003,0.114c0.003,0.032,0.01,0.063,0.017,0.095
  c0.007,0.034,0.013,0.068,0.023,0.102s0.023,0.063,0.036,0.096c0.013,0.029,0.025,0.06,0.04,0.088
  c0.019,0.034,0.041,0.065,0.062,0.098c0.013,0.019,0.023,0.039,0.037,0.058l6.837,8.639c0.007,0.009,0.017,0.015,0.024,0.024
  c0.009,0.01,0.016,0.022,0.025,0.033c0.005,0.006,0.011,0.008,0.016,0.014c0.021,0.022,0.045,0.042,0.069,0.062
  c0.02,0.019,0.039,0.036,0.06,0.051c0.01,0.008,0.02,0.018,0.03,0.024c0.029,0.021,0.062,0.035,0.092,0.053
  c0.023,0.013,0.044,0.026,0.068,0.037c0.006,0.003,0.012,0.007,0.019,0.01c0.042,0.018,0.087,0.029,0.132,0.042
  c0.019,0.005,0.036,0.013,0.054,0.017c0.07,0.015,0.143,0.024,0.218,0.024h16.271c0.075,0,0.147-0.009,0.218-0.024
  c0.019-0.004,0.037-0.012,0.055-0.017c0.051-0.014,0.103-0.03,0.149-0.051c0.025-0.012,0.046-0.025,0.07-0.039
  c0.04-0.021,0.079-0.045,0.116-0.071c0.024-0.018,0.044-0.036,0.067-0.056c0.035-0.03,0.068-0.063,0.1-0.1
  c0.01-0.013,0.024-0.021,0.034-0.034l6.836-8.638c0.015-0.019,0.024-0.039,0.037-0.059C31.838,14.993,31.86,14.962,31.879,14.928z
   M13.561,16.445l-5.578,5.129l-4.688-5.923L13.561,16.445z M15.999,17.001l5.48,5.052H10.504L15.999,17.001z M24.009,21.584
  l-5.575-5.139l10.27-0.794L24.009,21.584z M17.029,14.489v-3.562l4.464,3.217L17.029,14.489z M14.971,10.967v3.522l-4.289-0.331
  L14.971,10.967z"></path>
  </g>
</svg>
