<svg id="svg-source" height="0" version="1.1" 
  xmlns="http://www.w3.org/2000/svg" style="position:absolute; margin-left: -100%" 
  xmlns:xlink="http://www.w3.org/1999/xlink">
  <g id="shades" data-iconmelon="Climacons:441675a97a3237a347307cfdb024b6c2">
    <path id="shades"  d="M30.855,16h-1.143v2.286c0,1.893-1.535,3.428-3.43,3.428h-4.57
  c-1.895,0-3.428-1.535-3.428-3.428l-1.131-4.525c-0.396-0.027-0.796-0.047-1.19-0.047c-0.379,0-0.754,0.022-1.12,0.054l-1.131,4.519
  c0,1.893-1.534,3.428-3.428,3.428H5.714c-1.894,0-3.429-1.535-3.429-3.428V16H1.143C0.512,16,0,15.489,0,14.857v-1.143
  c0-0.63,0.512-1.142,1.143-1.142h1.354c0.471-1.33,1.729-2.286,3.218-2.286h5.714c1.08,0,2.031,0.508,2.66,1.291
  c0.601-0.086,1.23-0.147,1.876-0.147c0.657,0,1.319,0.052,1.967,0.124c0.627-0.767,1.571-1.267,2.642-1.267h5.713
  c1.492,0,2.746,0.957,3.219,2.286h1.354c0.631,0,1.143,0.511,1.143,1.142v1.143C31.998,15.489,31.488,16,30.855,16z M9.529,12.183
  c-0.333-0.335-0.877-0.335-1.212,0l-3.636,3.637c-0.334,0.335-0.334,0.877,0,1.212s0.878,0.335,1.212,0l3.636-3.636
  C9.865,13.061,9.865,12.518,9.529,12.183z M25.531,12.183c-0.336-0.335-0.879-0.335-1.215,0l-3.635,3.637
  c-0.336,0.335-0.336,0.877,0,1.212c0.334,0.335,0.877,0.335,1.213,0l3.637-3.636C25.865,13.061,25.865,12.518,25.531,12.183z"></path>
  </g>
</svg>
