<svg id="svg-source" height="0" version="1.1" 
  xmlns="http://www.w3.org/2000/svg" style="position:absolute; margin-left: -100%" 
  xmlns:xlink="http://www.w3.org/1999/xlink">
    <g id="sun" data-iconmelon="Climacons:1999b078a25a20a87fd8ba3d871b1f81">
    <path id="sun"  d="M30.666,17.333h-2.665c-0.736,0-1.334-0.598-1.334-1.333c0-0.736,0.598-1.333,1.334-1.333h2.665
  C31.403,14.667,32,15.264,32,16C32,16.735,31.404,17.333,30.666,17.333z M25.43,8.458c-0.521,0.521-1.367,0.521-1.886,0
  c-0.521-0.521-0.521-1.365,0-1.885l1.886-1.885c0.519-0.521,1.364-0.521,1.886,0c0.519,0.521,0.519,1.365,0,1.885L25.43,8.458z
   M16,24c-4.418,0-8-3.582-8-8c0-4.418,3.582-8,8-8c4.419,0,8,3.582,8,8C24,20.418,20.419,24,16,24z M16,10.667
  c-2.945,0-5.334,2.388-5.334,5.333c0,2.945,2.39,5.333,5.334,5.333c2.945,0,5.333-2.388,5.333-5.333
  C21.333,13.054,18.946,10.667,16,10.667z M16,5.333c-0.736,0-1.333-0.598-1.333-1.333V1.333C14.667,0.597,15.264,0,16,0
  c0.737,0,1.334,0.597,1.334,1.333V4C17.334,4.736,16.736,5.333,16,5.333z M6.572,8.458L4.688,6.572
  c-0.521-0.521-0.521-1.365,0-1.885c0.52-0.521,1.364-0.521,1.885,0l1.885,1.885c0.521,0.521,0.521,1.365,0,1.885
  C7.938,8.979,7.093,8.979,6.572,8.458z M5.334,16c0,0.735-0.598,1.333-1.334,1.333H1.333C0.597,17.333,0,16.735,0,16
  c0-0.736,0.598-1.333,1.333-1.333H4C4.736,14.667,5.334,15.264,5.334,16z M6.572,23.543c0.521-0.521,1.365-0.521,1.885,0
  c0.521,0.52,0.521,1.364,0,1.886l-1.885,1.885c-0.521,0.521-1.365,0.521-1.885,0c-0.521-0.521-0.521-1.365,0-1.885L6.572,23.543z
   M16,26.667c0.737,0,1.334,0.596,1.334,1.333v2.666C17.334,31.403,16.737,32,16,32c-0.736,0-1.333-0.597-1.333-1.334V28
  C14.667,27.263,15.264,26.667,16,26.667z M25.43,23.543l1.886,1.886c0.519,0.52,0.519,1.364,0,1.885
  c-0.521,0.521-1.367,0.521-1.886,0l-1.886-1.885c-0.521-0.521-0.521-1.366,0-1.886C24.062,23.021,24.907,23.021,25.43,23.543z"></path>
  </g>
</svg>
