<svg id="svg-source" height="0" version="1.1" 
  xmlns="http://www.w3.org/2000/svg" style="position:absolute; margin-left: -100%" 
  xmlns:xlink="http://www.w3.org/1999/xlink">
  <g id="toaster" data-iconmelon="Smallicons:49b23ac1c4030d03b165e25e2936d126">
    <path fill="#F6C37A" d="M9 0h12c2.209 0 4 1.791 4 4 0 1.105-.896 3-2 3l-.027 5h-15.954l-.02-5c-1.105 0-2-1.895-2-3 .001-2.209 1.792-4 4.001-4z"></path>
    <path fill="#F4B459" d="M21 0h-12c-2.209 0-4 1.791-4 4 0 1.105.895 3 2 3l.02 5h15.953l.027-5c1.104 0 2-1.895 2-3 0-2.209-1.791-4-4-4zm2 6h-.994l-.027 5h-13.964l-.017-5h-.997c-.323-.042-1.001-1.178-1.001-2 0-1.654 1.346-3 3-3h12c1.653 0 3 1.346 3 3 0 .819-.681 1.956-1 2z"></path>
    <path fill="#324D5B" d="M29 15h2c.553 0 1 .449 1 1v1c0 .553-.447 1-1 1h-2v-3z"></path>
    <path fill="#E4E7E7" d="M6 10h18c2.762 0 5 2.24 5 5v15h-28v-15c0-2.76 2.237-5 5-5z"></path>
    <path fill="#CDD0D0" d="M9 10h-3c-2.762 0-5 2.24-5 5v15h3v-15c0-2.76 2.237-5 5-5z"></path>
    <path fill="#165971" d="M3 31c0 .553.447 1 1 1h1c.553 0 1-.447 1-1v-1h-3v1zm21-1v1c0 .553.445 1 1 1h1c.553 0 1-.447 1-1v-1h-3z"></path>
    <path fill="#2494BC" d="M1 27h28c.553 0 1 .449 1 1v1c0 .553-.447 1-1 1h-28c-.553 0-1-.447-1-1v-1c0-.551.446-1 1-1z"></path>
    <path fill="#2494BC" d="M15 16c2.209 0 4 1.791 4 4s-1.791 4-4 4-4-1.791-4-4 1.791-4 4-4z"></path>
  </g>
</svg>
